<?xml version="1.0" standalone="no"?>
<!DOCTYPE svg PUBLIC "-//W3C//DTD SVG 20010904//EN"
 "http://www.w3.org/TR/2001/REC-SVG-20010904/DTD/svg10.dtd">
<svg version="1.0" xmlns="http://www.w3.org/2000/svg"
 width="512.000000pt" height="512.000000pt" viewBox="0 0 512.000000 512.000000"
 preserveAspectRatio="xMidYMid meet">
<metadata>
Created by potrace 1.11, written by Peter Selinger 2001-2013
</metadata>
<g transform="translate(0.000000,512.000000) scale(0.100000,-0.100000)"
fill="#000000" stroke="none">
<path d="M2565 4553 c-144 -124 -336 -253 -516 -347 -344 -180 -699 -277
-1100 -302 l-106 -6 -7 -91 c-9 -137 -7 -570 4 -762 20 -337 68 -665 130 -901
103 -390 276 -690 560 -974 235 -235 569 -452 923 -599 l99 -41 111 44 c378
149 684 343 937 596 475 473 665 1049 687 2080 3 162 2 374 -2 471 l-7 177
-107 6 c-150 10 -258 24 -396 53 -393 81 -826 302 -1093 557 l-77 74 -40 -35z
m605 -1242 c116 -173 209 -321 208 -329 -2 -8 -138 -76 -303 -151 -165 -76
-324 -150 -353 -165 -30 -15 -57 -25 -60 -22 -3 3 14 78 37 166 24 87 40 164
36 169 -3 6 -38 21 -78 33 -105 33 -310 33 -417 0 -149 -47 -326 -146 -423
-237 -45 -41 -44 -29 6 70 125 249 335 423 594 491 68 18 280 25 383 14 l45
-5 50 147 c27 81 53 144 57 140 3 -4 101 -149 218 -321z m-711 -858 c0 -10
-20 -85 -43 -168 -49 -170 -51 -164 38 -190 86 -26 207 -36 287 -25 170 24
370 119 533 254 44 36 48 38 41 16 -17 -57 -103 -205 -161 -279 -34 -43 -91
-102 -126 -130 -80 -66 -219 -135 -323 -161 -89 -23 -245 -30 -362 -17 l-72 8
-41 -133 c-23 -73 -44 -140 -46 -148 -3 -9 -21 10 -50 55 -25 39 -122 188
-215 332 -94 144 -172 265 -172 268 -2 6 687 332 706 334 4 1 7 -7 6 -16z"/>
</g>
</svg>
